<svg xmlns="http://www.w3.org/2000/svg" width="357.509" height="139.483" viewBox="0 0 357.509 139.483">
  <defs>
    <style>
      .cls-1 {
        fill: #fff;
      }

      .cls-2 {
        fill: #0072d3;
      }

      .cls-3 {
        fill: #f23d4e;
      }
    </style>
  </defs>
  <g id="PADI-horizontal-trap-on-light" transform="translate(0 0)">
    <path id="Shape" class="cls-1" d="M63.886,0C28.6,0,0,31.224,0,69.741s28.6,69.741,63.886,69.741,63.886-31.224,63.886-69.741a73.114,73.114,0,0,0-18.712-49.315C97.08,7.348,80.83,0,63.886,0" transform="translate(0 0)"/>
    <path id="Shape-2" data-name="Shape" class="cls-2" d="M24.9,87.308a84.6,84.6,0,0,1-1.6-9.136,6.2,6.2,0,0,0,1.054.209h.99c.735,1.639,2.747,2.371,7.7,3.487a30.659,30.659,0,0,1,5.622,1.953A28.662,28.662,0,0,0,43.557,85.5a12.428,12.428,0,0,0,.256,1.813,1.982,1.982,0,0,1-.3,1.749,1.625,1.625,0,0,1-1.516.657H27.553a2.756,2.756,0,0,1-2.715-2.441ZM71.156,25.657H55.184a4.235,4.235,0,0,0-3.642,2.894L47.9,42.081a2.4,2.4,0,0,0,.27,2.088,1.986,1.986,0,0,0,1.743.91H76.586a1.992,1.992,0,0,0,1.72-.925,2.4,2.4,0,0,0,.261-2.073L74.8,28.551A4.235,4.235,0,0,0,71.156,25.657Zm-23.063,0H37.679a4.755,4.755,0,0,0-3.769,2.511c-.383.593-.7,1.22-1.054,1.848a4.082,4.082,0,0,1,.7,1.046l.447,1.011h.8c1.533,0,3.194-3.487,3.194-3.487s3.45,4.6,2.076,7.951A5.11,5.11,0,0,1,35.7,40.024h-.543a7.578,7.578,0,0,1-1.246.872,7.684,7.684,0,0,1-1.15,3.94h9.583a3.285,3.285,0,0,0,2.907-2.65,114.814,114.814,0,0,1,4.057-14.262s1.182-2.511-1.214-2.511Zm57.5-.244H97c-3.514,0-1.853,2.406-1.853,2.406a52.333,52.333,0,0,1,6.708,14.367,3.252,3.252,0,0,0,3.194,2.65H117.09c3.194,0,2.012-3.243,2.012-3.243a46.986,46.986,0,0,0-7.762-13.948,8.249,8.249,0,0,0-6.005-2.127ZM98.946,47.626H84.476a1.625,1.625,0,0,0-1.516.657,1.982,1.982,0,0,0-.3,1.749A113.928,113.928,0,0,1,83.9,63.352a9.285,9.285,0,0,1,4.248-1.081,4.136,4.136,0,0,0,3.035-.663,3.97,3.97,0,0,1,1.5-1.569v-.453A4.984,4.984,0,0,1,96.551,56.1a4.2,4.2,0,0,1,.926,0,5.956,5.956,0,0,1,4.025,1.883,18.337,18.337,0,0,0,1.533,1.325,84,84,0,0,0-1.469-9.1,2.691,2.691,0,0,0-2.715-2.441Zm2.619,39.683a74.649,74.649,0,0,0,1.533-9.276,14.985,14.985,0,0,0-3.546-6.974l-.639-.628a10.055,10.055,0,0,0-5.846.418,36.2,36.2,0,0,0-9.583,6.974,13.023,13.023,0,0,1-.256,3.138,12.8,12.8,0,0,1,6.9,3.173,22.03,22.03,0,0,0,10.19,5.056,2.967,2.967,0,0,0,1.118-1.918ZM78.183,111.683H88.788a4.693,4.693,0,0,0,3.769-2.511A70.843,70.843,0,0,0,98.946,96.2a47.6,47.6,0,0,1-11.436-3.034H87.1a24.2,24.2,0,0,1-5.462.872,4.487,4.487,0,0,0-.256.767,120.749,120.749,0,0,1-4.089,14.262s-1.182,2.511,1.214,2.511Zm-44.177-2.615a4.755,4.755,0,0,0,3.769,2.511H48.22c2.4,0,1.214-2.511,1.214-2.511a114.8,114.8,0,0,1-4.057-14.262,3.285,3.285,0,0,0-2.907-2.65H28.607c-2.587,0-1.469,2.685-1.469,2.685a72.271,72.271,0,0,0,6.74,14.227Zm71.84-61.233c-2.108,0-1.565,2.406-1.565,2.406a80.508,80.508,0,0,1,1.725,11.542l3.194,2.685a22.078,22.078,0,0,1,2.747,2.825h9.9a2.364,2.364,0,0,0,1.956-.886,2.855,2.855,0,0,0,.6-2.217,65.422,65.422,0,0,0-2.076-13.425,3.778,3.778,0,0,0-3.769-2.929Zm-63.886,0H30.141l-.543.384a10.4,10.4,0,0,1-4.7,1.36,2.3,2.3,0,0,0-.192.628q-.845,4.006-1.31,8.09v.384a6.952,6.952,0,0,0,1.5,3.1l.735.907a5.825,5.825,0,0,1,1.374-1.6,4.428,4.428,0,0,1-.767-1.744,4.232,4.232,0,0,1,.575-2.929L28.7,53.449A3.842,3.842,0,0,1,31.9,51.636a3.645,3.645,0,0,1,1.98.558l.479-.558a5.646,5.646,0,0,1,4.089-1.43,11.133,11.133,0,0,1,4.408.942l.7.384.192-1.36a1.982,1.982,0,0,0-.3-1.749,1.625,1.625,0,0,0-1.516-.657Zm38.3,3a3.3,3.3,0,0,0-3.194-3.069H49.4a3.3,3.3,0,0,0-3.194,3.069l-.256,3a10.435,10.435,0,0,1,1.725,3.487,5.456,5.456,0,0,1,2.779-.418,7.694,7.694,0,0,1,2.843.593c1.278.488,18.751,8.683,21.114,9.8h4.472a2.39,2.39,0,0,0,1.214-.349l.192-.244a10.239,10.239,0,0,1,.926-1.116,3.991,3.991,0,0,0,.256-1.395Zm17.7-5.754c2.587,0,1.469-2.685,1.469-2.685a72.263,72.263,0,0,0-6.74-14.227,4.678,4.678,0,0,0-3.9-2.511H78.375c-2.4,0-1.214,2.511-1.214,2.511A120.749,120.749,0,0,1,81.25,42.43a3.288,3.288,0,0,0,2.875,2.65ZM68.568,85.809a15.142,15.142,0,0,1,.671,2.162A6.384,6.384,0,0,1,73.1,86.646a16.511,16.511,0,0,1,2.747.174c2.779.244,3.194-1.534,3.194-1.534a9.339,9.339,0,0,1,1.533-2.79l.192-2.2a30.248,30.248,0,0,1-12.138,5.51Zm-19.1,3.94h4.185c-.447-.663-.831-1.22-1.054-1.6l-1.15-1.953c-1.757,0-3.578-.209-5.175-.349v.7a3.3,3.3,0,0,0,3.194,3.069Zm5.91,21.969H71.347a4.236,4.236,0,0,0,3.642-2.894L78.63,95.782a27.272,27.272,0,0,1-9.3,4.359,13.952,13.952,0,0,1-3.194.349,9.271,9.271,0,0,1-7.7-3.836l-2.907-4.219H49.913a1.986,1.986,0,0,0-1.743.91,2.4,2.4,0,0,0-.27,2.088l3.769,13.53a4.236,4.236,0,0,0,3.642,2.894Zm-3.258,5.126a3.871,3.871,0,0,0-3.194-2.685h-9.04c-3.194,0-.479,2.79-.479,2.79a59.6,59.6,0,0,0,18.367,16.075c2.651,1.255,2.971,1.22,1.885-.628-1.533-2.58-5.75-11.542-7.411-15.552ZM70.1,114.089H56.366c-1.5,0-2.14,1.29-1.469,2.859a131.38,131.38,0,0,0,5.941,13.7c1.086,2.023,1.342,2.267,2.4,2.267s1.31-.244,2.4-2.267a124.173,124.173,0,0,0,5.941-13.7C72.242,115.379,71.571,114.089,70.1,114.089ZM57,134.175a57.4,57.4,0,0,1-20.444-17.435,7.042,7.042,0,0,0-5.271-2.65H21.931s-3.514,0-1.437,2.65a59.821,59.821,0,0,0,31.943,17.854c3.194.593,8.114,1.29,4.7-.418Zm30.186-17.435s2.651-2.825-.479-2.79H77.544a3.871,3.871,0,0,0-3.194,2.685c-1.661,4.01-5.878,12.972-7.411,15.552-1.086,1.848-.767,1.883,1.885.628A59.6,59.6,0,0,0,87.191,116.739ZM121.85,70.257h-7.507a50.19,50.19,0,0,1,5.718,9.38l.415,1.011a1.74,1.74,0,0,1-.021,1.307,1.517,1.517,0,0,1-.9.855l-.958.314a8.535,8.535,0,0,0-2.651,1.953,5.477,5.477,0,0,1-3.929,1.744,7.056,7.056,0,0,1-3.194-.837,17.064,17.064,0,0,0-2.46-.209h-1.6a8.864,8.864,0,0,1-.319,1.6c-.1.523-.543,2.406,1.565,2.406h12.777a3.783,3.783,0,0,0,3.769-2.964A65.806,65.806,0,0,0,124.629,73.4a2.855,2.855,0,0,0-.6-2.217,2.364,2.364,0,0,0-1.956-.886Zm-100.813,41.6H29.47c3.514,0,1.853-2.406,1.853-2.406a52.331,52.331,0,0,1-6.708-14.367,3.252,3.252,0,0,0-3.194-2.65H9.282c-3.194,0-2.012,3.243-2.012,3.243a46.982,46.982,0,0,0,7.762,13.948,8.249,8.249,0,0,0,6.005,2.127Zm83.5,2.232H95.177a7.051,7.051,0,0,0-5.239,2.685A57.4,57.4,0,0,1,69.495,134.21c-3.418,1.709,1.469,1.011,4.7.418a59.821,59.821,0,0,0,31.943-17.854C107.954,114.089,104.536,114.089,104.536,114.089Zm12.777-21.724h-2.172a3.464,3.464,0,0,1,.479,1.813c0,3.1-3.194,3.1-5.718,3.1a71.537,71.537,0,0,1-8.593-.628,50.527,50.527,0,0,1-6.133,12.8s-1.661,2.406,1.853,2.406h8.433a8.249,8.249,0,0,0,6.005-2.127,46.984,46.984,0,0,0,7.762-13.948s1.182-3.243-2.012-3.243ZM74.222,20.671a3.871,3.871,0,0,0,3.194,2.685h9.04c3.194,0,.479-2.79.479-2.79A59.6,59.6,0,0,0,68.568,4.491c-2.651-1.255-2.971-1.22-1.885.628,1.533,2.58,5.75,11.542,7.411,15.552ZM20.621,89.68c2.108,0,1.565-2.406,1.565-2.406a83.54,83.54,0,0,1-1.661-10.705,10.108,10.108,0,0,1-3.194-6.381H4.618a2.4,2.4,0,0,0-1.942.9,2.889,2.889,0,0,0-.613,2.2A65.8,65.8,0,0,0,4.139,86.716,3.783,3.783,0,0,0,7.908,89.68ZM56.366,23.425H70.1c1.5,0,2.14-1.29,1.469-2.859a121.149,121.149,0,0,0-5.941-13.7C64.543,4.839,64.288,4.6,63.234,4.6s-1.31.244-2.4,2.267a128.073,128.073,0,0,0-5.941,13.7C54.226,22.135,54.9,23.425,56.366,23.425ZM69.622,3.27A57.4,57.4,0,0,1,90.066,20.705a7.072,7.072,0,0,0,5.111,2.72h9.391s3.546,0,1.437-2.65A59.6,59.6,0,0,0,74.062,2.921c-3.194-.593-8.114-1.29-4.7.418ZM39.308,20.775s-2.651,2.79.479,2.79h9.04a3.871,3.871,0,0,0,3.194-2.685C53.683,16.87,57.9,7.908,59.432,5.327c1.086-1.848.767-1.883-1.885-.628A59.6,59.6,0,0,0,39.18,20.775ZM4.618,67.258H16.852a12.156,12.156,0,0,0-1.533-4.952c-1.693-3.487-1.693-5.4-2.651-6.974l-.543-1.325a7.293,7.293,0,0,1,0-5.614v-.558H7.908A3.783,3.783,0,0,0,4.139,50.8,65.422,65.422,0,0,0,2.062,64.224a2.889,2.889,0,0,0,.613,2.2,2.4,2.4,0,0,0,1.942.9ZM21.931,23.425H31.29a7.052,7.052,0,0,0,5.239-2.685A57.4,57.4,0,0,1,56.973,3.3c3.418-1.709-1.469-1.011-4.7-.418A59.6,59.6,0,0,0,20.334,20.74C18.513,23.425,21.931,23.425,21.931,23.425ZM9.154,45.15H13.53v-.384a14.393,14.393,0,0,1,.894-3.487l-.256-.872A8.336,8.336,0,0,1,15.8,33.015a6.163,6.163,0,0,1,5.079-2.441c1.5,0,3.194,1.046,4.823.942a1.256,1.256,0,0,0,.735-.209A5.582,5.582,0,0,1,30.428,28.9h.192l.671-.837s1.661-2.406-1.853-2.406h-8.4a8.249,8.249,0,0,0-6.005,2.127A46.983,46.983,0,0,0,7.269,41.732s-1.182,3.243,2.012,3.243Z" transform="translate(0.653 0.984)"/>
    <path id="Shape-3" data-name="Shape" class="cls-3" d="M11.241,43.795a4.343,4.343,0,0,1,0-3.487c.735-1.918,1.533-2.022,1.885-4.219A6.411,6.411,0,0,1,18.2,29.916c3.865-.767,6.772,5.475,10.254,1.5A5.42,5.42,0,0,1,25.52,36.89a7.4,7.4,0,0,1-7.283.349c-1.054-.453-2.971-2.267-3.61,0s3.194,1.5,2.492,5.3a4.316,4.316,0,0,0-6.005,1.151M23.7,28.9A7.213,7.213,0,0,0,26,25.627c.958-2.371,2.428-2.441,2.428-2.441-.607-1.325-1.917-.488-3.194.907s-3.61.837-4.6.837a5.028,5.028,0,0,0-5.782,1.081,5.607,5.607,0,0,0-1.182,4.847,8.959,8.959,0,0,1,10.158-1.674m6.964.279c1.437-1.29,3.194.174,4.185-2.65a3.775,3.775,0,0,0,0-3.034c-1.5,2.476-2.524,2.3-4.791,1.988s-2.46.767-3.546,2.371a5.993,5.993,0,0,1-1.885,2.023c1.278,1.255,4.568.558,6.037-.7M14.116,43.83a3.644,3.644,0,0,0-1.373,4.013,3.22,3.22,0,0,0,3.226,2.439,3.372,3.372,0,0,0,1.757-4.15,2.956,2.956,0,0,0-3.61-2.3M16.64,60.637a6.777,6.777,0,0,0,5.111,6.137c2.172.209,3.386-.907,3.194-3.906s-3.194-6.207-4.823-8.439a9.235,9.235,0,0,1-1.949-4.324,3.2,3.2,0,0,1-4.121,1.36,16.333,16.333,0,0,1,2.46,9.1m10.573-6.974a2.788,2.788,0,0,0-2.568,1.873,3.24,3.24,0,0,0,.6,3.306,2.612,2.612,0,0,0,3.029.658,3.049,3.049,0,0,0,1.716-2.8,2.915,2.915,0,0,0-2.779-3.034m7.091,1.081,1.629-3.069a1.879,1.879,0,0,0-.511-2.371L29.832,45.5a1.5,1.5,0,0,0-2.012.349l-1.853,2.929a1.346,1.346,0,0,0-.2.956,1.269,1.269,0,0,0,.489.823l6.389,4.463a1.1,1.1,0,0,0,.938.18,1.2,1.2,0,0,0,.755-.633m-3.642,4.812a2.561,2.561,0,0,1-1.5.767c4.089,1.5,1.821,0,5.654-.279a7.237,7.237,0,0,0,7.7-5.963,7.89,7.89,0,0,0-3.194-9.45,6.149,6.149,0,0,0-5.973,0,.972.972,0,0,0-.413.922.924.924,0,0,0,.605.786s2.172,1.5,3.514,2.615a2.275,2.275,0,0,1,.735,2.615s-1.565,3.069-2.492,4.5-3.194,1.081-3.194,1.081l-1.437,2.406m0,10.88c5.75,1.325,7.507,3.487,12.777,4.01s13.161.593,13.161.593a64.369,64.369,0,0,1-.415-6.974c-5.782-1.046-7.986-1.395-9.839-3.871s.383-6.1.383-6.1a4.818,4.818,0,0,0-3.386-1.569A9.471,9.471,0,0,1,35.422,61.4a2.516,2.516,0,0,0-2.46.593c-.8.628-1.725.488-3.9-.453s-2.332.593-2.332.593c-.287,5.231-1.5,4.777-2.076,5.4s.383,1.36,5.941,2.615M63.309,60.5a8.455,8.455,0,0,0,7.73,1.778,1.2,1.2,0,0,0,.161-1.062,1.059,1.059,0,0,0-.736-.716s-19.8-9.276-21.051-9.764a3.844,3.844,0,0,0-4.376.558,4.553,4.553,0,0,0-.99,3.487c3.354.663,4.153,2.476,4.153,2.476a27.125,27.125,0,0,1,15.109,3.313m-5.654,6.207c0,1.011.479,9.868.479,9.868a3.859,3.859,0,0,0,3.418.558,47.664,47.664,0,0,0,1.725-13.948c-.575-1.813-1.437-2.2-5.878-3.278a24.46,24.46,0,0,0-8.433-1.011,2.975,2.975,0,0,0-1.533,3.487c.383,1.883,2.811,2.79,2.811,2.79a57.8,57.8,0,0,0,7.411,1.744M60.4,83.373a2.012,2.012,0,0,0,1.625-1.159A2.374,2.374,0,0,0,62,80.1a2.866,2.866,0,0,0-3.418-1.465c-1.054.349-1.278,1.813-1.278,1.813-.607,2.476,1.6,3.138,3.194,2.929M65.1,63.6a48.286,48.286,0,0,1-1.5,10.915,26.961,26.961,0,0,0,14.566-6.66c7.315-6.277,8.561-7.218,11.276-8.3a11.022,11.022,0,0,1,5.718-.767c1.278,0,2.4.767,2.939-.279s-2.811-4.115-4.823-4.777-2.555-.349-2.939.523a5.8,5.8,0,0,1-4.76,1.813,7.859,7.859,0,0,0-6.389,3.243A14,14,0,0,1,64.842,63.6m35.138-5.51c.415,1.43-1.6,2.162-1.6,2.162,4.791,4.568,5.271,13.948,5.271,13.948a13.737,13.737,0,0,1,3.194.314,3.442,3.442,0,0,0,4.664-.314,10.085,10.085,0,0,1,3.546-2.511,54.61,54.61,0,0,0-9.934-14.123C102.6,55.546,99.117,52.443,98,51.536s-1.98-2.057-3.578-1.744a2.611,2.611,0,0,0-2.012,1.744,15.969,15.969,0,0,1,7.7,6.556m-42.9,27.652a7.459,7.459,0,0,0,8.816,3c6.069-1.36,10.222-6.1,12.362-6a20.6,20.6,0,0,0,5.207-.767c-1.437-3.487-6.389-3.8-6.389-3.8-1.118,1.883-3.194,2.023-6.74,1.813a4.346,4.346,0,0,0-4.568,2.3s-1.086,0-1.5-2.092a4.581,4.581,0,0,0-1.533-2.755,1.442,1.442,0,0,0-.6.984,1.525,1.525,0,0,0,.284,1.143,3.764,3.764,0,0,1,.256,3.313,3.837,3.837,0,0,1-2.462,1.8,3.576,3.576,0,0,1-2.9-.653c-2.811-1.883-.831-6.381-.831-6.381H51.745s4.791,7.253,5.462,8.055m27.918-3.94c8.4,3.906,25.171,4.638,25.171,3.487a.759.759,0,0,0-1.022-.837c-15.173-.628-20.667-4.882-23.287-7.183a14.387,14.387,0,0,0-5.909-3c-1.469.209-2.076,2.2-2.076,2.2a9.052,9.052,0,0,1,7.123,5.335" transform="translate(3.485 9.941)"/>
    <path id="Shape-4" data-name="Shape" d="M200.828,18.483l27.024,86.166H152.594l15.2-51.469h19.709l-9.168,31H201.5l-20.252-65.7Zm67.336,0H233.027V38.952h24.564a20.424,20.424,0,0,1,17.783,11.429,24.326,24.326,0,0,1-.176,22.526A20.351,20.351,0,0,1,257.24,84h-5.462V53.179H233.027v51.469h35.138c18.048-1.778,31.049-21.969,31.049-43S284.839,20.261,268.164,18.483Zm-105,27.164c-.355-14.88-11.348-26.834-24.98-27.164H108.863V38.952h26.7a6.5,6.5,0,0,1,6.1,6.7,7.264,7.264,0,0,1-6.389,7.532H108.863v51.469h18.751V73.264h10.573c13.7-.48,24.651-12.59,24.916-27.548ZM322.628,18.552H303.877v86.1h18.751Z" transform="translate(34.881 8.159)"/>
  </g>
</svg>
