<svg xmlns="http://www.w3.org/2000/svg" width="32" height="56" viewBox="0 0 32 56">
  <defs>
    <style>
      .cls-1 {
        fill: #f6f6f6;
      }
    </style>
  </defs>
  <g id="Group_494" data-name="Group 494" transform="translate(0)">
    <path id="Path_277" data-name="Path 277" class="cls-1" d="M139.113,26.382c4.717-1.69,7.764-5.706,7.764-10.232V7.6h2.379a1.176,1.176,0,0,0,1.238-1.1V1.1A1.176,1.176,0,0,0,149.256,0H119.732a1.176,1.176,0,0,0-1.238,1.1V6.5a1.176,1.176,0,0,0,1.238,1.1h2.379V16.15c0,4.526,3.048,8.542,7.765,10.232A1.749,1.749,0,0,1,131.1,28a1.608,1.608,0,0,1-.336.977,1.932,1.932,0,0,1-.893.642c-4.717,1.69-7.764,5.706-7.764,10.232V48.4h-2.379a1.176,1.176,0,0,0-1.238,1.1v5.4a1.176,1.176,0,0,0,1.238,1.1h29.523a1.176,1.176,0,0,0,1.238-1.1V49.5a1.176,1.176,0,0,0-1.238-1.1h-2.379V39.85c0-4.526-3.048-8.542-7.765-10.232A1.752,1.752,0,0,1,137.883,28a1.6,1.6,0,0,1,.337-.977A1.925,1.925,0,0,1,139.113,26.382ZM120.971,2.205h27.047V5.4H120.971Zm27.047,51.589H120.971V50.6h27.047ZM136.168,25.787A3.633,3.633,0,0,0,135.406,28a3.964,3.964,0,0,0,2.782,3.665A8.853,8.853,0,0,1,144.4,39.85V48.4H124.588V39.85a8.854,8.854,0,0,1,6.213-8.186,4.368,4.368,0,0,0,2.019-1.452A3.64,3.64,0,0,0,133.581,28a3.961,3.961,0,0,0-2.781-3.663,8.853,8.853,0,0,1-6.212-8.186V7.6H144.4V16.15a8.853,8.853,0,0,1-6.212,8.186A4.357,4.357,0,0,0,136.168,25.787Z" transform="translate(-118.494)"/>
    <path id="Path_278" data-name="Path 278" class="cls-1" d="M212.27,269.888a1.092,1.092,0,0,0-1.092,1.092v.549a3.039,3.039,0,0,0-2.672,3.013V276a3.039,3.039,0,0,0,2.672,3.013v3.1a.851.851,0,0,1-.487-.768,1.092,1.092,0,1,0-2.185,0,3.039,3.039,0,0,0,2.672,3.013v.549a1.092,1.092,0,0,0,2.185,0v-.549a3.039,3.039,0,0,0,2.672-3.013v-1.457a3.039,3.039,0,0,0-2.672-3.013v-3.1a.851.851,0,0,1,.487.768v.81a1.092,1.092,0,1,0,2.185,0v-.81a3.039,3.039,0,0,0-2.672-3.013v-.549A1.092,1.092,0,0,0,212.27,269.888ZM210.691,276v-1.457a.851.851,0,0,1,.487-.768v2.993A.851.851,0,0,1,210.691,276Zm3.158,3.886v1.457a.851.851,0,0,1-.487.768v-2.993A.851.851,0,0,1,213.849,279.886Z" transform="translate(-196.27 -237.882)"/>
    <path id="Path_279" data-name="Path 279" class="cls-1" d="M185.837,117.178c-.147-.749-.7-1.189-1.236-.985a17.03,17.03,0,0,1-12.336,0c-.535-.2-1.089.236-1.236.985a1.53,1.53,0,0,0,.705,1.726,18.495,18.495,0,0,0,13.4,0A1.53,1.53,0,0,0,185.837,117.178Z" transform="translate(-162.433 -102.981)"/>
  </g>
</svg>
