<svg xmlns="http://www.w3.org/2000/svg" width="91.699" height="67.092" viewBox="0 0 91.699 67.092">
  <defs>
    <style>
      .cls-1 {
        fill: #026b93;
      }
    </style>
  </defs>
  <path id="handshake-svgrepo-com" class="cls-1" d="M99.7,16.074V44.215s-5.944,1.175-7.172,1.341-5.043,1.407-7.827-1.291c-4.29-4.238-19.5-19.55-19.5-19.55a5.747,5.747,0,0,0-6.845-.348c-3.864,2.053-9.612,5.082-12,6.257a5.466,5.466,0,0,1-5.338.13,5.581,5.581,0,0,1-2.948-4.5A5.692,5.692,0,0,1,41.5,21.289c5.453-3.311,16.964-9.932,21.762-12.448,2.915-1.655,5.011-1.655,9.023,1.655,4.929,4.287,9.4,8.045,9.4,8.045a4.464,4.464,0,0,0,3.7.712C90.906,18.094,99.7,16.074,99.7,16.074ZM39.112,63.616a5.009,5.009,0,0,0-.793-5.239,4.88,4.88,0,0,0-5.02-1.531,5.123,5.123,0,0,0-1.048-4.966,5.086,5.086,0,0,0-4.912-1.242,5.123,5.123,0,0,0-1.064-4.966,5.492,5.492,0,0,0-7.729.215c-2.26,2.185-3.717,6.158-1.637,8.508s4.323.91,6.091.5c-.491,1.771-1.965,3.427-.147,5.744s4.323.91,6.091.5c-.491,1.771-1.9,3.576-.164,5.728s4.65,1.01,6.55.414c-.737,1.9-2.309,3.956-.295,6.274s6.681,1.242,8.957-.96a5.538,5.538,0,0,0,.491-7.747,5.167,5.167,0,0,0-5.371-1.225Zm41.51-14.6L63.052,31.337a5.733,5.733,0,0,0-6.173-1.126c-2.456,1.093-5.617,2.582-8.007,3.708a13.248,13.248,0,0,1-5.387,1.821,9.167,9.167,0,0,1-8.878-6.675,9.3,9.3,0,0,1,3.966-10.442c3.815-2.632,12.15-7.151,12.15-7.151a10.519,10.519,0,0,0-8.187-3.311c-5.6,0-17.325,7.78-17.325,7.78a9.1,9.1,0,0,1-8.073.215L8,12.946V45.059s2.6.761,4.912,1.655a10.494,10.494,0,0,1,2.554-4.089,10.024,10.024,0,0,1,13.886-.1,8.964,8.964,0,0,1,2.194,3.923,8.747,8.747,0,0,1,5.928,6.307,9.016,9.016,0,0,1,6.075,6.621,8.792,8.792,0,0,1,3.914,2.367,9.42,9.42,0,0,1,2.423,8.095h0s1.31,1.49,2.112,2.3a4,4,0,0,0,5.7,0,4.1,4.1,0,0,0,0-5.761s3.275,4.105,7.008,1.655c3.275-2.317,2.767-5.065,1.212-6.621a5.186,5.186,0,0,0,7.811.215,4.088,4.088,0,0,0,.213-5.463s2.178,3,6.55.2c3.095-2.649,1.637-5.678,0-7.267Z" transform="translate(-8 -7.753)"/>
</svg>
