<svg xmlns="http://www.w3.org/2000/svg" width="70.981" height="75.203" viewBox="0 0 70.981 75.203">
  <defs>
    <style>
      .cls-1 {
        fill: #026b93;
      }
    </style>
  </defs>
  <path id="shift-preference-svgrepo-com" class="cls-1" d="M85.376,27.52H79.038V25.014a5.07,5.07,0,0,0-10.14,0V27.52H46.083V25.014a5.07,5.07,0,0,0-10.14,0V27.52H29.605A7.563,7.563,0,0,0,22,35.041v2.507a2.521,2.521,0,0,0,2.535,2.507H90.446a2.521,2.521,0,0,0,2.535-2.507V35.041A7.563,7.563,0,0,0,85.376,27.52Zm5.07,20.054H24.535A2.521,2.521,0,0,0,22,50.081v37.6a7.563,7.563,0,0,0,7.605,7.52H85.376a7.563,7.563,0,0,0,7.605-7.52v-37.6A2.521,2.521,0,0,0,90.446,47.575ZM57.49,90.065A18.677,18.677,0,1,1,76.376,71.389,18.782,18.782,0,0,1,57.49,90.065Zm-8.619-10.9a2.135,2.135,0,0,1-.768,1.515,2.184,2.184,0,0,1-1.641.49H44.942a.846.846,0,0,1-.887-.752V68.882c0-.5.38-.752.887-.752h3.042a.846.846,0,0,1,.887.752Zm21.8-2.256c0,4.387-4.183,4.763-8.746,4.763-4.183,0-5.7-1.379-9.76-1.5a.819.819,0,0,1-.761-.752V69.384c0-.5.38-.752.887-.752a5.265,5.265,0,0,0,5.07-5.264V60.359c0-.5.38-.752.887-.752h1.521a2.184,2.184,0,0,1,1.641.49,2.135,2.135,0,0,1,.768,1.515v5.139a2.135,2.135,0,0,0,.768,1.515,2.184,2.184,0,0,0,1.641.49h3.549a2.249,2.249,0,0,1,2.408,2.005h0Z" transform="translate(-22 -20)"/>
</svg>
