<svg id="stars-couple-of-two-sizes-svgrepo-com" xmlns="http://www.w3.org/2000/svg" width="91.435" height="75.138" viewBox="0 0 91.435 75.138">
  <defs>
    <style>
      .cls-1 {
        fill: #026b93;
      }
    </style>
  </defs>
  <g id="Group_426" data-name="Group 426" transform="translate(0 0)">
    <path id="Path_274" data-name="Path 274" class="cls-1" d="M27.618,116.233c.756,3.348,3.329,4.089,5.748,1.653l14.839-14.938,7.1.154,1.424-10.878-8.033-7.3a4.063,4.063,0,0,1,1.977-7.342L61.253,75.3l4.906-9.75a6.072,6.072,0,0,1,.364-.627l2.782-5.79c1.487-3.094-.033-5.041-3.4-4.349L44.865,59.119,28.159,45.341c-2.648-2.184-5.111-1.19-5.5,2.22L20.192,69.076,2.036,80.561c-2.9,1.835-2.675,4.37.506,5.662L22.693,94.4Z" transform="translate(0 -44.182)"/>
    <path id="Path_275" data-name="Path 275" class="cls-1" d="M308.618,172.427l-11.877-1.783-6.11-10.451a2.052,2.052,0,0,0-1.657-1.212,2,2,0,0,0-1.658,1.317l-5.441,10.814-2.737.589-9,1.938c-1.877.4-2.246,1.777-.826,3.068l9,8.179-1.557,11.9-.066.505c-.186,1.424.443,2.277,1.5,2.277a2.864,2.864,0,0,0,1.2-.3l4.964-2.316,5.7-2.662,1.755.688,9.2,3.61a3.012,3.012,0,0,0,1.086.231c1.11,0,1.686-.893,1.339-2.341l-2.95-12.287,9.085-8.823C310.938,174.027,310.516,172.712,308.618,172.427Z" transform="translate(-218.936 -137.809)"/>
  </g>
</svg>
