<svg xmlns="http://www.w3.org/2000/svg" width="40" height="40" viewBox="0 0 40 40">
  <defs>
    <style>
      .cls-1 {
        fill: #f6f6f6;
      }
    </style>
  </defs>
  <path id="XMLID_1666_" class="cls-1" d="M20,0A20,20,0,1,0,40,20,20,20,0,0,0,20,0Zm1.609,36.435a.849.849,0,0,0-.3.043V27.043c2.261-.043,4.3-.087,6.174-.217A24.928,24.928,0,0,1,21.609,36.435Zm-3.217,0a25.131,25.131,0,0,1-5.87-9.609c1.826.13,3.913.217,6.174.217v9.435C18.609,36.478,18.522,36.435,18.391,36.435ZM3.478,20a19.675,19.675,0,0,1,.3-3.217c.957-.174,2.783-.435,5.348-.7a23.1,23.1,0,0,0-.348,3.957,27.487,27.487,0,0,0,.3,3.913c-2.522-.261-4.391-.522-5.348-.7A27.459,27.459,0,0,1,3.478,20Zm7.957,0a21.193,21.193,0,0,1,.435-4.174c2-.13,4.261-.261,6.826-.261v8.87c-2.522-.043-4.826-.13-6.87-.3A24.232,24.232,0,0,1,11.435,20ZM21.565,3.565a26.5,26.5,0,0,1,5.87,9.609c-1.826-.13-3.87-.217-6.13-.217V3.522C21.391,3.522,21.478,3.565,21.565,3.565ZM18.7,3.522v9.435c-2.261.043-4.3.087-6.13.217a26.578,26.578,0,0,1,5.826-9.609C18.522,3.565,18.609,3.522,18.7,3.522ZM21.3,24.435v-8.87c2.522.043,4.826.13,6.826.261a21.3,21.3,0,0,1,.043,8.348C26.174,24.3,23.87,24.391,21.3,24.435Zm9.522-8.348c2.565.261,4.391.522,5.348.7A15.851,15.851,0,0,1,36.522,20a19.675,19.675,0,0,1-.3,3.217c-.957.174-2.783.435-5.348.7a23.18,23.18,0,0,0,.3-3.957A22.47,22.47,0,0,0,30.826,16.087ZM35.391,14c-1.217-.174-2.957-.391-5.174-.609a28.551,28.551,0,0,0-4.391-8.87A16.57,16.57,0,0,1,35.391,14ZM14.174,4.522a26.914,26.914,0,0,0-4.391,8.826c-2.174.174-3.913.435-5.174.609A16.746,16.746,0,0,1,14.174,4.522ZM4.609,26c1.217.174,2.957.391,5.13.609a26.915,26.915,0,0,0,4.348,8.826A16.724,16.724,0,0,1,4.609,26Zm21.3,9.435a26.65,26.65,0,0,0,4.348-8.783c2.174-.174,3.913-.435,5.13-.609A16.779,16.779,0,0,1,25.913,35.435Z"/>
</svg>
