<svg xmlns="http://www.w3.org/2000/svg" width="28.751" height="28.744" viewBox="0 0 28.751 28.744">
  <defs>
    <style>
      .cls-1 {
        fill: #026b93;
      }
    </style>
  </defs>
  <path id="Icon_awesome-instagram" data-name="Icon awesome-instagram" class="cls-1" d="M14.373,9.24a7.37,7.37,0,1,0,7.37,7.37A7.358,7.358,0,0,0,14.373,9.24Zm0,12.161a4.791,4.791,0,1,1,4.791-4.791A4.8,4.8,0,0,1,14.373,21.4Zm9.39-12.462A1.719,1.719,0,1,1,22.044,7.22,1.715,1.715,0,0,1,23.763,8.939Zm4.881,1.745a8.507,8.507,0,0,0-2.322-6.023A8.563,8.563,0,0,0,20.3,2.339c-2.373-.135-9.486-.135-11.859,0A8.55,8.55,0,0,0,2.418,4.654,8.535,8.535,0,0,0,.1,10.677c-.135,2.373-.135,9.486,0,11.859a8.507,8.507,0,0,0,2.322,6.023A8.574,8.574,0,0,0,8.44,30.881c2.373.135,9.486.135,11.859,0a8.507,8.507,0,0,0,6.023-2.322,8.563,8.563,0,0,0,2.322-6.023c.135-2.373.135-9.48,0-11.853Zm-3.066,14.4a4.851,4.851,0,0,1-2.732,2.732c-1.892.75-6.382.577-8.473.577s-6.587.167-8.473-.577a4.851,4.851,0,0,1-2.732-2.732c-.75-1.892-.577-6.382-.577-8.473s-.167-6.587.577-8.473A4.851,4.851,0,0,1,5.9,5.4c1.892-.75,6.382-.577,8.473-.577s6.587-.167,8.473.577a4.851,4.851,0,0,1,2.732,2.732c.75,1.892.577,6.382.577,8.473S26.329,23.2,25.579,25.083Z" transform="translate(0.005 -2.238)"/>
</svg>
