<svg id="location-svgrepo-com_1_" data-name="location-svgrepo-com (1)" xmlns="http://www.w3.org/2000/svg" width="33" height="55" viewBox="0 0 33 55">
  <defs>
    <style>
      .cls-1 {
        fill: #424651;
      }
    </style>
  </defs>
  <path id="Path_112" data-name="Path 112" class="cls-1" d="M71.143,0a16.319,16.319,0,0,0-16.5,16.094,15.62,15.62,0,0,0,1.6,6.915c.021.046.044.092.068.138L68.774,46.69a2.7,2.7,0,0,0,4.737,0L85.975,23.153c.022-.041.042-.082.061-.123a15.619,15.619,0,0,0,1.607-6.936A16.319,16.319,0,0,0,71.143,0Zm0,24.518a8.542,8.542,0,0,1-8.637-8.424,8.639,8.639,0,0,1,17.273,0A8.542,8.542,0,0,1,71.143,24.518Z" transform="translate(-54.643)"/>
  <path id="Path_113" data-name="Path 113" class="cls-1" d="M108.826,249.018H96.286a1.578,1.578,0,1,0,0,3.156h12.54a1.578,1.578,0,1,0,0-3.156Z" transform="translate(-86.056 -197.174)"/>
</svg>
