<svg xmlns="http://www.w3.org/2000/svg" width="30.541" height="31.094" viewBox="0 0 30.541 31.094">
  <defs>
    <style>
      .cls-1 {
        fill: #424651;
      }
    </style>
  </defs>
  <path id="Path_1" data-name="Path 1" class="cls-1" d="M30.156,29.078l-8.763-8.935A12.205,12.205,0,0,0,12.086.2a12.191,12.191,0,0,0-.013,24.382,11.965,11.965,0,0,0,7.5-2.64L28.366,30.9a1.217,1.217,0,0,0,1.79,0A1.273,1.273,0,0,0,30.156,29.078ZM2.566,12.394a9.508,9.508,0,1,1,9.508,9.573A9.552,9.552,0,0,1,2.566,12.394Z" transform="translate(0 -0.2)"/>
</svg>
