<svg xmlns="http://www.w3.org/2000/svg" width="30.332" height="28.516" viewBox="0 0 30.332 28.516">
  <defs>
    <style>
      .cls-1 {
        fill: #026b93;
      }
    </style>
  </defs>
  <path id="Icon_awesome-snapchat-ghost" data-name="Icon awesome-snapchat-ghost" class="cls-1" d="M30.264,23.433c-.309.72-1.614,1.249-3.991,1.618a11.111,11.111,0,0,0-.385,1.419.686.686,0,0,1-.718.525h-.018c-.557,0-1.138-.256-2.3-.256a4.689,4.689,0,0,0-3.333,1.22,6.672,6.672,0,0,1-4.386,1.623,6.8,6.8,0,0,1-4.317-1.623,4.683,4.683,0,0,0-3.332-1.219,22.376,22.376,0,0,0-2.3.28.7.7,0,0,1-.736-.536,10.974,10.974,0,0,0-.386-1.43c-1.225-.19-3.988-.672-4.058-1.9a.63.63,0,0,1,.526-.656c4.122-.679,5.979-4.911,6.056-5.091l.014-.031a1.347,1.347,0,0,0,.146-1.111c-.3-.7-1.592-.958-2.136-1.173-1.4-.555-1.6-1.192-1.517-1.629a1.525,1.525,0,0,1,1.955-.915,3.39,3.39,0,0,0,1.395.373,1.209,1.209,0,0,0,.59-.129c-.121-2.129-.421-5.171.337-6.87A8.071,8.071,0,0,1,14.86,1.083l.6-.005a8.016,8.016,0,0,1,7.507,4.837c.757,1.7.459,4.727.337,6.873a1.161,1.161,0,0,0,.509.127,3.539,3.539,0,0,0,1.307-.371,1.6,1.6,0,0,1,1.213,0h0a1.231,1.231,0,0,1,.924,1.059c.011.577-.5,1.076-1.533,1.482-.125.049-.278.1-.44.15-.58.184-1.457.462-1.7,1.023a1.346,1.346,0,0,0,.146,1.111c.005.01.01.02.014.031.077.18,1.932,4.411,6.056,5.091A.647.647,0,0,1,30.264,23.433Z" transform="translate(0 -1.078)"/>
</svg>
