<svg xmlns="http://www.w3.org/2000/svg" width="37.083" height="26.074" viewBox="0 0 37.083 26.074">
  <defs>
    <style>
      .cls-1 {
        fill: #026b93;
        <!-- fill:'rgba(66, 70, 81, 0.6)' -->
      }
    </style>
  </defs>
  <path id="Icon_awesome-youtube" data-name="Icon awesome-youtube" class="cls-1" d="M37.358,8.58a4.659,4.659,0,0,0-3.278-3.3C31.187,4.5,19.591,4.5,19.591,4.5S8,4.5,5.1,5.28a4.66,4.66,0,0,0-3.278,3.3c-.775,2.911-.775,8.984-.775,8.984s0,6.073.775,8.984A4.59,4.59,0,0,0,5.1,29.794c2.892.78,14.488.78,14.488.78s11.6,0,14.488-.78a4.59,4.59,0,0,0,3.278-3.247c.775-2.911.775-8.984.775-8.984s0-6.073-.775-8.984ZM15.8,23.077V12.049l9.692,5.514L15.8,23.077Z" transform="translate(-1.05 -4.5)"/>
</svg>
