<svg xmlns="http://www.w3.org/2000/svg" width="40" height="48" viewBox="0 0 40 48">
  <defs>
    <style>
      .cls-1 {
        fill: #f6f6f6;
      }
    </style>
  </defs>
  <g id="Group_457" data-name="Group 457" transform="translate(0)">
    <path id="Path_281" data-name="Path 281" class="cls-1" d="M81.652,0H71.908a1.332,1.332,0,1,0,0,2.665H78.42L64.326,16.724l-5.147-5.131a1.347,1.347,0,0,0-1.9,0l-13.9,13.861a1.337,1.337,0,0,0,0,1.89,1.528,1.528,0,0,0,1.9,0L58.231,14.428l3.422,3.411c-5.621,1.077-9.431,3.846-9.431,7.266V39.354C52.222,44.2,58.715,48,66.989,48s14.767-3.8,14.767-8.646V25.1c0-4.337-6.1-7.625-14.284-7.748L80.315,4.554v6.491a1.336,1.336,0,0,0,2.673,0V1.332A1.333,1.333,0,0,0,81.652,0ZM79.083,39.354c0,2.882-4.862,5.981-12.094,5.981s-12.094-3.09-12.094-5.981v-2.3c2.654,2.211,7.033,3.628,12.094,3.628s9.45-1.417,12.094-3.628Zm0-7.323h0c0,2.891-4.862,5.981-12.094,5.981s-12.094-3.09-12.094-5.981V29.66c2.625,1.965,6.976,3.2,12.094,3.2s9.469-1.238,12.094-3.2Zm0-6.935c0,2.409-4.967,5.1-12.094,5.1s-12.094-2.683-12.094-5.1,4.967-5.1,12.094-5.1S79.083,22.687,79.083,25.1Z" transform="translate(-42.988)"/>
  </g>
</svg>
